<mxfile host="Electron" agent="Mozilla/5.0 (X11; Linux x86_64) AppleWebKit/537.36 (KHTML, like Gecko) draw.io/27.0.9 Chrome/134.0.6998.205 Electron/35.5.0 Safari/537.36" version="27.0.9">
  <diagram name="Page-1" id="a_B7v6qpBGuGGAHK6Dij">
    <mxGraphModel dx="1665" dy="880" grid="1" gridSize="10" guides="1" tooltips="1" connect="1" arrows="1" fold="1" page="1" pageScale="1" pageWidth="850" pageHeight="1100" math="0" shadow="0">
      <root>
        <mxCell id="0" />
        <mxCell id="1" parent="0" />
        <mxCell id="nnh34WTJ4tmE6mJD3tnR-9" style="edgeStyle=orthogonalEdgeStyle;rounded=0;orthogonalLoop=1;jettySize=auto;html=1;" parent="1" source="nnh34WTJ4tmE6mJD3tnR-1" target="nnh34WTJ4tmE6mJD3tnR-2" edge="1">
          <mxGeometry relative="1" as="geometry" />
        </mxCell>
        <mxCell id="nnh34WTJ4tmE6mJD3tnR-1" value="Начало" style="html=1;shape=stencil(xVVNb4MwDP01HJmAaFV7nFh37GWTdnapgaghQU7Wj3+/0IAGAzqayyQO+D3yXuzYJGCpLqHGIIkkVBiw1yBJPpAqLsEosoFlSgevIheeXbhZuxB0jZlx2AmIw16gY7QhdcQzP5hWgcsSiZuGZdsgerHfNA9LMyWlFeFK6gHT460YcGnXRhcnFj09O5trG7uotg4VGqQB+pPczgFB8ubtFC9zevdwGmbU+f7l9Pm4U+zntPWpXvzbLF5YwZ1HYhN2683CA/Oy69Qfz86rmCO7xdnN2LHUInMDyNI9ZMeC1Jc8TG6yhma4R0RHV+qEs+19L/1OQHDZE+j+OY8oAGX2hVoF1q6h6zC+hHDhOiRloKnCQF8AFRhanTAXUAwofUase3B79NPbXXlkHHko/GPGHiecCaXxzhhYfNRkN3SmM1maK8I7LZtzIdzVNDcNI4Eb6i7KG/AN);whiteSpace=wrap;" parent="1" vertex="1">
          <mxGeometry x="110" y="120" width="100" height="60" as="geometry" />
        </mxCell>
        <mxCell id="nnh34WTJ4tmE6mJD3tnR-10" style="edgeStyle=orthogonalEdgeStyle;rounded=0;orthogonalLoop=1;jettySize=auto;html=1;" parent="1" source="nnh34WTJ4tmE6mJD3tnR-2" target="nnh34WTJ4tmE6mJD3tnR-3" edge="1">
          <mxGeometry relative="1" as="geometry" />
        </mxCell>
        <mxCell id="nnh34WTJ4tmE6mJD3tnR-2" value="Вычислить&lt;div&gt;параметры&lt;/div&gt;&lt;div&gt;распределения&lt;/div&gt;&lt;div&gt;пикселей в строке&lt;/div&gt;" style="html=1;shape=process;whiteSpace=wrap;size=0.14;" parent="1" vertex="1">
          <mxGeometry x="80" y="200" width="160" height="60" as="geometry" />
        </mxCell>
        <mxCell id="nnh34WTJ4tmE6mJD3tnR-11" value="" style="edgeStyle=orthogonalEdgeStyle;rounded=0;orthogonalLoop=1;jettySize=auto;html=1;" parent="1" source="nnh34WTJ4tmE6mJD3tnR-3" target="nnh34WTJ4tmE6mJD3tnR-5" edge="1">
          <mxGeometry relative="1" as="geometry" />
        </mxCell>
        <mxCell id="nnh34WTJ4tmE6mJD3tnR-3" value="Классифицировать&lt;div&gt;текущую строку на&lt;/div&gt;&lt;div&gt;основе параметров&lt;/div&gt;&lt;div&gt;распределения&lt;/div&gt;" style="html=1;shape=process;whiteSpace=wrap;size=0.14;" parent="1" vertex="1">
          <mxGeometry x="80" y="280" width="160" height="60" as="geometry" />
        </mxCell>
        <mxCell id="nnh34WTJ4tmE6mJD3tnR-15" style="edgeStyle=orthogonalEdgeStyle;rounded=0;orthogonalLoop=1;jettySize=auto;html=1;dashed=1;endArrow=none;startFill=0;" parent="1" source="nnh34WTJ4tmE6mJD3tnR-4" edge="1">
          <mxGeometry relative="1" as="geometry">
            <mxPoint x="240" y="150" as="targetPoint" />
          </mxGeometry>
        </mxCell>
        <mxCell id="nnh34WTJ4tmE6mJD3tnR-4" value="Вход:&lt;div&gt;- Сканирующая строка&lt;/div&gt;&lt;div&gt;- Текущее состояние КА&lt;/div&gt;&lt;div&gt;Выход:&lt;/div&gt;&lt;div&gt;- Обновленное состояние КА&lt;/div&gt;&lt;div&gt;- Обновленная информация о&lt;/div&gt;&lt;div&gt;&amp;nbsp; текущем сегменте&lt;/div&gt;" style="html=1;shape=mxgraph.flowchart.annotation_2;align=left;labelPosition=right;pointerEvents=1;" parent="1" vertex="1">
          <mxGeometry x="260" y="95" width="20" height="110" as="geometry" />
        </mxCell>
        <mxCell id="nu9noupocn7w6eG6_UsU-4" style="edgeStyle=orthogonalEdgeStyle;rounded=0;orthogonalLoop=1;jettySize=auto;html=1;" edge="1" parent="1" source="nnh34WTJ4tmE6mJD3tnR-5" target="nu9noupocn7w6eG6_UsU-1">
          <mxGeometry relative="1" as="geometry" />
        </mxCell>
        <mxCell id="nnh34WTJ4tmE6mJD3tnR-5" value="Уточнить класс&lt;div&gt;текущей строки с&lt;/div&gt;&lt;div&gt;учетом текущего&lt;/div&gt;&lt;div&gt;состояния КА&lt;/div&gt;" style="html=1;shape=process;whiteSpace=wrap;size=0.14;" parent="1" vertex="1">
          <mxGeometry x="80" y="360" width="160" height="60" as="geometry" />
        </mxCell>
        <mxCell id="nnh34WTJ4tmE6mJD3tnR-13" style="edgeStyle=orthogonalEdgeStyle;rounded=0;orthogonalLoop=1;jettySize=auto;html=1;" parent="1" source="nnh34WTJ4tmE6mJD3tnR-6" target="nnh34WTJ4tmE6mJD3tnR-7" edge="1">
          <mxGeometry relative="1" as="geometry" />
        </mxCell>
        <mxCell id="nnh34WTJ4tmE6mJD3tnR-6" value="Обновить состояние&lt;div&gt;конечного&lt;/div&gt;&lt;div&gt;автомата&lt;/div&gt;" style="html=1;shape=process;whiteSpace=wrap;size=0.14;" parent="1" vertex="1">
          <mxGeometry x="280" y="280" width="160" height="60" as="geometry" />
        </mxCell>
        <mxCell id="nnh34WTJ4tmE6mJD3tnR-14" style="edgeStyle=orthogonalEdgeStyle;rounded=0;orthogonalLoop=1;jettySize=auto;html=1;" parent="1" source="nnh34WTJ4tmE6mJD3tnR-7" target="nnh34WTJ4tmE6mJD3tnR-8" edge="1">
          <mxGeometry relative="1" as="geometry" />
        </mxCell>
        <mxCell id="nnh34WTJ4tmE6mJD3tnR-7" value="Обновить&lt;div&gt;информацию о&lt;/div&gt;&lt;div&gt;сегменте&lt;/div&gt;" style="html=1;shape=process;whiteSpace=wrap;size=0.14;" parent="1" vertex="1">
          <mxGeometry x="280" y="360" width="160" height="60" as="geometry" />
        </mxCell>
        <mxCell id="nnh34WTJ4tmE6mJD3tnR-8" value="Конец" style="html=1;shape=stencil(xVVNb4MwDP01HJmAaFV7nFh37GWTdnapgaghQU7Wj3+/0IAGAzqayyQO+D3yXuzYJGCpLqHGIIkkVBiw1yBJPpAqLsEosoFlSgevIheeXbhZuxB0jZlx2AmIw16gY7QhdcQzP5hWgcsSiZuGZdsgerHfNA9LMyWlFeFK6gHT460YcGnXRhcnFj09O5trG7uotg4VGqQB+pPczgFB8ubtFC9zevdwGmbU+f7l9Pm4U+zntPWpXvzbLF5YwZ1HYhN2683CA/Oy69Qfz86rmCO7xdnN2LHUInMDyNI9ZMeC1Jc8TG6yhma4R0RHV+qEs+19L/1OQHDZE+j+OY8oAGX2hVoF1q6h6zC+hHDhOiRloKnCQF8AFRhanTAXUAwofUase3B79NPbXXlkHHko/GPGHiecCaXxzhhYfNRkN3SmM1maK8I7LZtzIdzVNDcNI4Eb6i7KG/AN);whiteSpace=wrap;" parent="1" vertex="1">
          <mxGeometry x="310" y="440" width="100" height="60" as="geometry" />
        </mxCell>
        <mxCell id="nu9noupocn7w6eG6_UsU-1" value="A" style="html=1;shape=mxgraph.flowchart.start_2;whiteSpace=wrap;" vertex="1" parent="1">
          <mxGeometry x="140" y="440" width="40" height="40" as="geometry" />
        </mxCell>
        <mxCell id="nu9noupocn7w6eG6_UsU-3" style="edgeStyle=orthogonalEdgeStyle;rounded=0;orthogonalLoop=1;jettySize=auto;html=1;" edge="1" parent="1" source="nu9noupocn7w6eG6_UsU-2" target="nnh34WTJ4tmE6mJD3tnR-6">
          <mxGeometry relative="1" as="geometry" />
        </mxCell>
        <mxCell id="nu9noupocn7w6eG6_UsU-2" value="A" style="html=1;shape=mxgraph.flowchart.start_2;whiteSpace=wrap;" vertex="1" parent="1">
          <mxGeometry x="340" y="220" width="40" height="40" as="geometry" />
        </mxCell>
      </root>
    </mxGraphModel>
  </diagram>
</mxfile>
